<svg xmlns="http://www.w3.org/2000/svg" xmlns:xlink="http://www.w3.org/1999/xlink" width="500" zoomAndPan="magnify" viewBox="0 0 375 374.999991" height="500" preserveAspectRatio="xMidYMid meet" version="1.0"><defs><g/><clipPath id="2e623814e4"><path d="M 21.855469 20 L 346.605469 20 L 346.605469 355 L 21.855469 355 Z M 21.855469 20 " clip-rule="nonzero"/></clipPath></defs><g clip-path="url(#2e623814e4)"><path fill="#3d3b3a" d="M 143.261719 25.203125 C 145.890625 24.542969 148.53125 23.949219 151.1875 23.417969 C 153.84375 22.886719 156.511719 22.421875 159.191406 22.019531 C 161.871094 21.617188 164.558594 21.28125 167.253906 21.011719 C 169.949219 20.742188 172.648438 20.535156 175.355469 20.398438 C 178.0625 20.257812 180.769531 20.183594 183.476562 20.175781 C 186.1875 20.167969 188.894531 20.226562 191.601562 20.351562 C 194.304688 20.472656 197.007812 20.664062 199.703125 20.917969 C 202.402344 21.175781 205.089844 21.496094 207.773438 21.878906 C 210.453125 22.265625 213.125 22.714844 215.785156 23.230469 C 218.441406 23.746094 221.089844 24.328125 223.71875 24.972656 C 226.351562 25.617188 228.964844 26.324219 231.5625 27.09375 C 234.160156 27.863281 236.734375 28.699219 239.292969 29.59375 C 241.847656 30.492188 244.382812 31.449219 246.890625 32.46875 C 249.402344 33.488281 251.886719 34.566406 254.34375 35.707031 C 256.800781 36.847656 259.226562 38.046875 261.628906 39.304688 C 264.027344 40.5625 266.394531 41.878906 268.730469 43.25 C 271.0625 44.625 273.363281 46.054688 275.628906 47.539062 C 277.894531 49.023438 280.125 50.5625 282.316406 52.15625 C 284.507812 53.746094 286.65625 55.394531 288.769531 57.089844 C 290.878906 58.789062 292.949219 60.535156 294.976562 62.335938 C 297 64.132812 298.984375 65.980469 300.917969 67.875 C 302.855469 69.769531 304.746094 71.707031 306.585938 73.695312 C 308.429688 75.679688 310.222656 77.710938 311.964844 79.785156 C 313.707031 81.855469 315.402344 83.972656 317.042969 86.125 C 318.683594 88.28125 320.269531 90.476562 321.804688 92.710938 C 323.339844 94.941406 324.816406 97.210938 326.242188 99.515625 C 327.664062 101.820312 329.03125 104.15625 330.34375 106.527344 C 331.652344 108.898438 332.90625 111.300781 334.097656 113.734375 C 335.292969 116.164062 336.425781 118.625 337.5 121.109375 C 338.574219 123.597656 339.589844 126.109375 340.539062 128.644531 C 341.492188 131.179688 342.382812 133.738281 343.210938 136.320312 C 344.039062 138.898438 344.804688 141.496094 345.503906 144.113281 C 345.765625 145.078125 346.019531 146.0625 346.265625 147.066406 L 343.710938 147.957031 C 343.449219 146.90625 343.179688 145.859375 342.898438 144.808594 C 342.203125 142.214844 341.445312 139.640625 340.625 137.082031 C 339.804688 134.527344 338.921875 131.992188 337.976562 129.476562 C 337.03125 126.964844 336.023438 124.476562 334.957031 122.011719 C 333.890625 119.546875 332.765625 117.113281 331.578125 114.703125 C 330.394531 112.292969 329.148438 109.917969 327.847656 107.570312 C 326.542969 105.222656 325.183594 102.90625 323.769531 100.625 C 322.351562 98.34375 320.882812 96.097656 319.355469 93.890625 C 317.832031 91.679688 316.25 89.507812 314.617188 87.378906 C 312.988281 85.246094 311.304688 83.15625 309.570312 81.105469 C 307.835938 79.054688 306.050781 77.050781 304.21875 75.085938 C 302.386719 73.125 300.507812 71.210938 298.578125 69.339844 C 296.652344 67.46875 294.683594 65.648438 292.667969 63.875 C 290.652344 62.097656 288.59375 60.375 286.492188 58.703125 C 284.390625 57.03125 282.253906 55.410156 280.074219 53.839844 C 277.894531 52.273438 275.675781 50.761719 273.421875 49.300781 C 271.171875 47.839844 268.882812 46.4375 266.558594 45.089844 C 264.238281 43.742188 261.882812 42.453125 259.5 41.21875 C 257.113281 39.988281 254.699219 38.8125 252.253906 37.699219 C 249.8125 36.585938 247.34375 35.53125 244.847656 34.539062 C 242.355469 33.546875 239.835938 32.613281 237.296875 31.746094 C 234.757812 30.875 232.199219 30.066406 229.617188 29.324219 C 227.039062 28.578125 224.441406 27.898438 221.828125 27.28125 C 219.214844 26.660156 216.589844 26.109375 213.949219 25.621094 C 211.308594 25.132812 208.660156 24.707031 205.996094 24.347656 C 203.335938 23.988281 200.667969 23.695312 197.992188 23.464844 C 195.320312 23.238281 192.640625 23.074219 189.957031 22.976562 C 187.273438 22.878906 184.589844 22.847656 181.902344 22.882812 C 179.21875 22.917969 176.539062 23.015625 173.855469 23.183594 C 171.175781 23.347656 168.503906 23.578125 165.835938 23.875 C 163.167969 24.171875 160.507812 24.535156 157.855469 24.960938 C 155.203125 25.386719 152.566406 25.878906 149.9375 26.433594 C 147.3125 26.988281 144.699219 27.609375 142.105469 28.292969 C 142.507812 27.273438 142.902344 26.25 143.261719 25.207031 Z M 24.410156 227.394531 C 24.625 228.253906 24.84375 229.109375 25.074219 229.96875 C 25.773438 232.570312 26.53125 235.152344 27.355469 237.714844 C 28.179688 240.277344 29.066406 242.816406 30.011719 245.335938 C 30.960938 247.855469 31.972656 250.351562 33.042969 252.820312 C 34.113281 255.289062 35.242188 257.730469 36.433594 260.148438 C 37.625 262.5625 38.871094 264.945312 40.179688 267.296875 C 41.488281 269.648438 42.851562 271.96875 44.273438 274.253906 C 45.695312 276.542969 47.171875 278.789062 48.703125 281.003906 C 50.234375 283.21875 51.820312 285.390625 53.457031 287.527344 C 55.09375 289.664062 56.785156 291.757812 58.527344 293.8125 C 60.265625 295.863281 62.058594 297.871094 63.898438 299.835938 C 65.738281 301.800781 67.625 303.71875 69.558594 305.59375 C 71.492188 307.464844 73.472656 309.289062 75.496094 311.0625 C 77.519531 312.839844 79.582031 314.5625 81.691406 316.238281 C 83.800781 317.910156 85.949219 319.53125 88.136719 321.101562 C 90.324219 322.667969 92.546875 324.183594 94.808594 325.640625 C 97.070312 327.101562 99.367188 328.503906 101.699219 329.847656 C 104.03125 331.195312 106.390625 332.484375 108.785156 333.714844 C 111.179688 334.945312 113.601562 336.117188 116.054688 337.226562 C 118.503906 338.339844 120.984375 339.390625 123.484375 340.378906 C 125.988281 341.371094 128.515625 342.296875 131.0625 343.164062 C 133.613281 344.03125 136.179688 344.832031 138.769531 345.574219 C 141.355469 346.3125 143.960938 346.988281 146.582031 347.601562 C 149.203125 348.210938 151.839844 348.761719 154.484375 349.242188 C 157.132812 349.726562 159.792969 350.144531 162.460938 350.496094 C 165.128906 350.847656 167.804688 351.132812 170.488281 351.355469 C 173.171875 351.578125 175.855469 351.730469 178.546875 351.820312 C 181.238281 351.910156 183.929688 351.933594 186.621094 351.890625 C 189.3125 351.847656 192 351.738281 194.6875 351.5625 C 197.371094 351.386719 200.050781 351.148438 202.726562 350.839844 C 205.398438 350.535156 208.066406 350.164062 210.722656 349.726562 C 213.378906 349.289062 216.019531 348.785156 218.652344 348.21875 C 221.285156 347.652344 223.898438 347.019531 226.5 346.324219 C 226.078125 347.347656 225.675781 348.375 225.296875 349.417969 C 222.667969 350.085938 220.019531 350.691406 217.359375 351.234375 C 214.699219 351.777344 212.027344 352.253906 209.34375 352.664062 C 206.660156 353.074219 203.964844 353.421875 201.265625 353.699219 C 198.566406 353.980469 195.859375 354.195312 193.148438 354.34375 C 190.4375 354.492188 187.722656 354.574219 185.007812 354.589844 C 182.292969 354.605469 179.578125 354.554688 176.867188 354.4375 C 174.152344 354.324219 171.445312 354.140625 168.742188 353.894531 C 166.039062 353.644531 163.339844 353.332031 160.652344 352.953125 C 157.964844 352.574219 155.285156 352.128906 152.621094 351.621094 C 149.953125 351.109375 147.300781 350.535156 144.660156 349.894531 C 142.023438 349.257812 139.398438 348.554688 136.796875 347.789062 C 134.191406 347.023438 131.605469 346.191406 129.042969 345.300781 C 126.476562 344.40625 123.9375 343.453125 121.417969 342.4375 C 118.902344 341.421875 116.410156 340.34375 113.941406 339.207031 C 111.476562 338.070312 109.042969 336.871094 106.632812 335.617188 C 104.226562 334.359375 101.851562 333.046875 99.507812 331.671875 C 97.164062 330.300781 94.855469 328.875 92.582031 327.390625 C 90.308594 325.90625 88.074219 324.367188 85.875 322.773438 C 83.675781 321.179688 81.519531 319.535156 79.398438 317.835938 C 77.28125 316.136719 75.207031 314.386719 73.171875 312.589844 C 71.136719 310.789062 69.148438 308.941406 67.207031 307.046875 C 65.261719 305.148438 63.367188 303.207031 61.519531 301.21875 C 59.667969 299.230469 57.871094 297.199219 56.121094 295.121094 C 54.371094 293.042969 52.671875 290.925781 51.027344 288.769531 C 49.378906 286.609375 47.785156 284.410156 46.246094 282.175781 C 44.707031 279.9375 43.222656 277.667969 41.792969 275.355469 C 40.363281 273.046875 38.992188 270.707031 37.679688 268.332031 C 36.363281 265.953125 35.105469 263.546875 33.910156 261.113281 C 32.710938 258.675781 31.574219 256.210938 30.496094 253.71875 C 29.417969 251.226562 28.402344 248.710938 27.449219 246.167969 C 26.492188 243.625 25.601562 241.0625 24.769531 238.476562 C 23.941406 235.890625 23.171875 233.289062 22.46875 230.664062 C 22.257812 229.875 22.054688 229.078125 21.855469 228.289062 Z M 24.410156 227.394531 " fill-opacity="1" fill-rule="evenodd"/></g><g fill="#000000" fill-opacity="1"><g transform="translate(41.698877, 197.500535)"><g><path d="M 14.578125 -4.578125 L 6.828125 -4.578125 L 4.921875 0 L 0.375 0 L 10.921875 -24.296875 L 11.1875 -24.296875 L 21.734375 0 L 16.390625 0 Z M 13.0625 -8.453125 L 10.796875 -14.140625 L 8.453125 -8.453125 Z M 13.0625 -8.453125 "/></g></g></g><g fill="#000000" fill-opacity="1"><g transform="translate(89.227121, 197.500535)"><g><path d="M 7.5625 -13.875 L 8.265625 -14.765625 L 15.890625 -23.375 L 21.859375 -23.375 L 12.203125 -12.890625 L 21.890625 0 L 16.046875 0 L 8.828125 -9.96875 L 7.6875 -8.828125 L 7.6875 0 L 3.015625 0 L 3.015625 -23.375 L 7.6875 -23.375 L 7.6875 -15.0625 Z M 7.5625 -13.875 "/></g></g></g><g fill="#000000" fill-opacity="1"><g transform="translate(137.009514, 197.500535)"><g><path d="M 15.625 0 L 10.703125 -7.4375 L 7.625 -7.4375 L 7.625 0 L 3.015625 0 L 3.015625 -23.375 L 10.09375 -23.375 C 13 -23.375 15.25 -22.671875 16.84375 -21.265625 C 18.445312 -19.859375 19.25 -17.9375 19.25 -15.5 C 19.25 -14.0625 18.945312 -12.710938 18.34375 -11.453125 C 17.738281 -10.191406 16.8125 -9.203125 15.5625 -8.484375 L 21 0 Z M 7.625 -11.875 L 10.890625 -11.875 C 12.140625 -11.875 13.050781 -12.238281 13.625 -12.96875 C 14.195312 -13.707031 14.484375 -14.5 14.484375 -15.34375 C 14.484375 -16.1875 14.238281 -16.992188 13.75 -17.765625 C 13.269531 -18.546875 12.328125 -18.9375 10.921875 -18.9375 L 7.625 -18.9375 Z M 7.625 -11.875 "/></g></g></g><g fill="#000000" fill-opacity="1"><g transform="translate(184.220063, 197.500535)"><g><path d="M 14.578125 -4.578125 L 6.828125 -4.578125 L 4.921875 0 L 0.375 0 L 10.921875 -24.296875 L 11.1875 -24.296875 L 21.734375 0 L 16.390625 0 Z M 13.0625 -8.453125 L 10.796875 -14.140625 L 8.453125 -8.453125 Z M 13.0625 -8.453125 "/></g></g></g><g fill="#000000" fill-opacity="1"><g transform="translate(231.748311, 197.500535)"><g><path d="M 27.09375 -24.328125 L 27.09375 0 L 22.484375 0 L 22.484375 -11.15625 L 14.859375 -0.3125 L 14.796875 -0.3125 L 7.46875 -10.453125 L 7.46875 0 L 3.015625 0 L 3.015625 -24.328125 L 3.046875 -24.328125 L 14.890625 -7.53125 L 27.03125 -24.328125 Z M 27.09375 -24.328125 "/></g></g></g><g fill="#000000" fill-opacity="1"><g transform="translate(287.282457, 197.500535)"><g><path d="M 15.5 -17.71875 C 13.46875 -18.84375 11.703125 -19.40625 10.203125 -19.40625 C 9.179688 -19.40625 8.390625 -19.203125 7.828125 -18.796875 C 7.265625 -18.398438 6.984375 -17.800781 6.984375 -17 C 6.984375 -16.257812 7.390625 -15.609375 8.203125 -15.046875 C 9.023438 -14.484375 10.113281 -13.945312 11.46875 -13.4375 C 12.570312 -13.03125 13.515625 -12.566406 14.296875 -12.046875 C 15.078125 -11.535156 15.726562 -10.820312 16.25 -9.90625 C 16.769531 -9 17.03125 -7.847656 17.03125 -6.453125 C 17.03125 -5.242188 16.71875 -4.125 16.09375 -3.09375 C 15.46875 -2.070312 14.550781 -1.257812 13.34375 -0.65625 C 12.132812 -0.0507812 10.691406 0.25 9.015625 0.25 C 7.617188 0.25 6.234375 0.046875 4.859375 -0.359375 C 3.484375 -0.773438 2.203125 -1.40625 1.015625 -2.25 L 3.046875 -5.84375 C 3.847656 -5.25 4.769531 -4.757812 5.8125 -4.375 C 6.851562 -4 7.785156 -3.8125 8.609375 -3.8125 C 9.578125 -3.8125 10.421875 -4.015625 11.140625 -4.421875 C 11.867188 -4.835938 12.234375 -5.515625 12.234375 -6.453125 C 12.234375 -7.660156 11.097656 -8.707031 8.828125 -9.59375 C 7.492188 -10.125 6.378906 -10.628906 5.484375 -11.109375 C 4.597656 -11.597656 3.832031 -12.296875 3.1875 -13.203125 C 2.539062 -14.117188 2.21875 -15.265625 2.21875 -16.640625 C 2.21875 -18.648438 2.878906 -20.269531 4.203125 -21.5 C 5.523438 -22.726562 7.289062 -23.394531 9.5 -23.5 C 11.238281 -23.5 12.6875 -23.300781 13.84375 -22.90625 C 15.007812 -22.519531 16.144531 -21.96875 17.25 -21.25 Z M 15.5 -17.71875 "/></g></g></g><g fill="#000000" fill-opacity="1"><g transform="translate(331.22074, 197.500535)"><g><path d="M 0.640625 -18.640625 C 1.035156 -19.023438 1.367188 -19.539062 1.640625 -20.1875 C 1.921875 -20.832031 2.0625 -21.472656 2.0625 -22.109375 C 2.0625 -22.273438 2.039062 -22.507812 2 -22.8125 L 5.40625 -23.03125 C 5.445312 -22.78125 5.46875 -22.578125 5.46875 -22.421875 C 5.46875 -21.554688 5.210938 -20.65625 4.703125 -19.71875 C 4.191406 -18.789062 3.597656 -18.132812 2.921875 -17.75 Z M 0.640625 -18.640625 "/></g></g></g><g fill="#000000" fill-opacity="1"><g transform="translate(74.491415, 252.761835)"><g><path d="M 3.359375 -11.265625 L 3.359375 -1.734375 L 8.921875 -1.734375 L 8.921875 0 L 1.546875 0 L 1.546875 -11.265625 Z M 3.359375 -11.265625 "/></g></g></g><g fill="#000000" fill-opacity="1"><g transform="translate(90.441443, 252.761835)"><g><path d="M 9.03125 -11.265625 L 9.03125 -9.53125 L 3.359375 -9.53125 L 3.359375 -6.53125 L 8.40625 -6.53125 L 8.40625 -4.796875 L 3.359375 -4.796875 L 3.359375 -1.734375 L 9.25 -1.734375 L 9.25 0 L 1.546875 0 L 1.546875 -11.265625 Z M 9.03125 -11.265625 "/></g></g></g><g fill="#000000" fill-opacity="1"><g transform="translate(106.824928, 252.761835)"><g><path d="M 7.34375 -2.640625 L 3.234375 -2.640625 L 2.15625 0 L 0.375 0 L 5.359375 -11.734375 L 5.46875 -11.734375 L 10.453125 0 L 8.375 0 Z M 6.734375 -4.203125 L 5.328125 -7.75 L 3.875 -4.203125 Z M 6.734375 -4.203125 "/></g></g></g><g fill="#000000" fill-opacity="1"><g transform="translate(123.843101, 252.761835)"><g><path d="M 7.71875 0 L 5.171875 -3.921875 L 3.359375 -3.921875 L 3.359375 0 L 1.546875 0 L 1.546875 -11.265625 L 4.71875 -11.265625 C 5.976562 -11.265625 6.988281 -10.945312 7.75 -10.3125 C 8.507812 -9.675781 8.890625 -8.789062 8.890625 -7.65625 C 8.890625 -6.957031 8.738281 -6.3125 8.4375 -5.71875 C 8.144531 -5.125 7.6875 -4.664062 7.0625 -4.34375 L 9.796875 0 Z M 3.359375 -5.65625 L 4.96875 -5.65625 C 5.6875 -5.65625 6.207031 -5.851562 6.53125 -6.25 C 6.863281 -6.644531 7.03125 -7.09375 7.03125 -7.59375 C 7.03125 -7.875 6.96875 -8.160156 6.84375 -8.453125 C 6.71875 -8.753906 6.503906 -9.007812 6.203125 -9.21875 C 5.910156 -9.425781 5.519531 -9.53125 5.03125 -9.53125 L 3.359375 -9.53125 Z M 3.359375 -5.65625 "/></g></g></g><g fill="#000000" fill-opacity="1"><g transform="translate(140.412349, 252.761835)"><g><path d="M 11.5 -11.265625 L 11.5 0.40625 L 11.453125 0.40625 L 3.328125 -7.484375 L 3.375 0 L 1.546875 0 L 1.546875 -11.65625 L 1.640625 -11.65625 L 9.734375 -3.6875 L 9.703125 -11.265625 Z M 11.5 -11.265625 "/></g></g></g><g fill="#000000" fill-opacity="1"><g transform="translate(159.675191, 252.761835)"><g><path d="M 3.359375 -11.265625 L 3.359375 0 L 1.546875 0 L 1.546875 -11.265625 Z M 3.359375 -11.265625 "/></g></g></g><g fill="#000000" fill-opacity="1"><g transform="translate(170.779834, 252.761835)"><g><path d="M 11.5 -11.265625 L 11.5 0.40625 L 11.453125 0.40625 L 3.328125 -7.484375 L 3.375 0 L 1.546875 0 L 1.546875 -11.65625 L 1.640625 -11.65625 L 9.734375 -3.6875 L 9.703125 -11.265625 Z M 11.5 -11.265625 "/></g></g></g><g fill="#000000" fill-opacity="1"><g transform="translate(190.042676, 252.761835)"><g><path d="M 10.515625 -1.03125 C 10.203125 -0.75 9.660156 -0.484375 8.890625 -0.234375 C 8.117188 0.00390625 7.414062 0.125 6.78125 0.125 C 5.59375 0.125 4.550781 -0.109375 3.65625 -0.578125 C 2.757812 -1.054688 2.066406 -1.710938 1.578125 -2.546875 C 1.097656 -3.378906 0.859375 -4.320312 0.859375 -5.375 C 0.859375 -6.644531 1.117188 -7.734375 1.640625 -8.640625 C 2.160156 -9.546875 2.859375 -10.226562 3.734375 -10.6875 C 4.617188 -11.15625 5.585938 -11.390625 6.640625 -11.390625 C 7.296875 -11.390625 7.914062 -11.316406 8.5 -11.171875 C 9.082031 -11.023438 9.59375 -10.828125 10.03125 -10.578125 L 9.453125 -8.90625 C 9.140625 -9.09375 8.726562 -9.25 8.21875 -9.375 C 7.707031 -9.507812 7.257812 -9.578125 6.875 -9.578125 C 5.582031 -9.578125 4.5625 -9.222656 3.8125 -8.515625 C 3.070312 -7.804688 2.703125 -6.8125 2.703125 -5.53125 C 2.703125 -4.757812 2.875 -4.082031 3.21875 -3.5 C 3.570312 -2.914062 4.0625 -2.460938 4.6875 -2.140625 C 5.3125 -1.828125 6.023438 -1.671875 6.828125 -1.671875 C 7.191406 -1.671875 7.535156 -1.703125 7.859375 -1.765625 C 8.191406 -1.835938 8.472656 -1.9375 8.703125 -2.0625 L 8.703125 -3.9375 L 6.578125 -3.9375 L 6.578125 -5.671875 L 10.515625 -5.671875 Z M 10.515625 -1.03125 "/></g></g></g><g fill="#000000" fill-opacity="1"><g transform="translate(207.943249, 252.761835)"><g/></g></g><g fill="#000000" fill-opacity="1"><g transform="translate(219.094337, 252.761835)"><g><path d="M 4.734375 -11.265625 C 6.015625 -11.265625 7.015625 -10.945312 7.734375 -10.3125 C 8.460938 -9.675781 8.828125 -8.789062 8.828125 -7.65625 C 8.828125 -7 8.695312 -6.390625 8.4375 -5.828125 C 8.175781 -5.265625 7.757812 -4.804688 7.1875 -4.453125 C 6.613281 -4.097656 5.878906 -3.921875 4.984375 -3.921875 L 3.359375 -3.921875 L 3.359375 0 L 1.546875 0 L 1.546875 -11.265625 Z M 4.984375 -5.65625 C 5.484375 -5.65625 5.882812 -5.757812 6.1875 -5.96875 C 6.488281 -6.175781 6.703125 -6.429688 6.828125 -6.734375 C 6.960938 -7.046875 7.03125 -7.34375 7.03125 -7.625 C 7.03125 -8.09375 6.875 -8.523438 6.5625 -8.921875 C 6.257812 -9.328125 5.75 -9.53125 5.03125 -9.53125 L 3.359375 -9.53125 L 3.359375 -5.65625 Z M 4.984375 -5.65625 "/></g></g></g><g fill="#000000" fill-opacity="1"><g transform="translate(234.750243, 252.761835)"><g><path d="M 0.859375 -5.625 C 0.859375 -6.65625 1.113281 -7.609375 1.625 -8.484375 C 2.144531 -9.367188 2.84375 -10.070312 3.71875 -10.59375 C 4.601562 -11.125 5.566406 -11.390625 6.609375 -11.390625 C 7.640625 -11.390625 8.597656 -11.125 9.484375 -10.59375 C 10.367188 -10.070312 11.070312 -9.367188 11.59375 -8.484375 C 12.125 -7.597656 12.390625 -6.644531 12.390625 -5.625 C 12.390625 -4.582031 12.128906 -3.617188 11.609375 -2.734375 C 11.085938 -1.859375 10.378906 -1.160156 9.484375 -0.640625 C 8.597656 -0.128906 7.640625 0.125 6.609375 0.125 C 5.566406 0.125 4.601562 -0.128906 3.71875 -0.640625 C 2.84375 -1.148438 2.144531 -1.84375 1.625 -2.71875 C 1.113281 -3.601562 0.859375 -4.570312 0.859375 -5.625 Z M 2.703125 -5.625 C 2.703125 -4.882812 2.878906 -4.207031 3.234375 -3.59375 C 3.585938 -2.988281 4.066406 -2.503906 4.671875 -2.140625 C 5.273438 -1.785156 5.9375 -1.609375 6.65625 -1.609375 C 7.375 -1.609375 8.023438 -1.785156 8.609375 -2.140625 C 9.191406 -2.492188 9.65625 -2.976562 10 -3.59375 C 10.351562 -4.207031 10.53125 -4.882812 10.53125 -5.625 C 10.53125 -6.351562 10.351562 -7.023438 10 -7.640625 C 9.644531 -8.265625 9.171875 -8.753906 8.578125 -9.109375 C 7.984375 -9.472656 7.328125 -9.65625 6.609375 -9.65625 C 5.890625 -9.65625 5.234375 -9.472656 4.640625 -9.109375 C 4.046875 -8.753906 3.570312 -8.265625 3.21875 -7.640625 C 2.875 -7.023438 2.703125 -6.351562 2.703125 -5.625 Z M 2.703125 -5.625 "/></g></g></g><g fill="#000000" fill-opacity="1"><g transform="translate(254.183373, 252.761835)"><g><path d="M 3.359375 -11.265625 L 3.359375 0 L 1.546875 0 L 1.546875 -11.265625 Z M 3.359375 -11.265625 "/></g></g></g><g fill="#000000" fill-opacity="1"><g transform="translate(265.288021, 252.761835)"><g><path d="M 11.5 -11.265625 L 11.5 0.40625 L 11.453125 0.40625 L 3.328125 -7.484375 L 3.375 0 L 1.546875 0 L 1.546875 -11.65625 L 1.640625 -11.65625 L 9.734375 -3.6875 L 9.703125 -11.265625 Z M 11.5 -11.265625 "/></g></g></g><g fill="#000000" fill-opacity="1"><g transform="translate(284.550864, 252.761835)"><g><path d="M 8.28125 -11.265625 L 8.28125 -9.53125 L 5.375 -9.53125 L 5.375 0 L 3.578125 0 L 3.578125 -9.53125 L 0.75 -9.53125 L 0.75 -11.265625 Z M 8.28125 -11.265625 "/></g></g></g><g fill="#3d3b3a" fill-opacity="1"><g transform="translate(163.402054, 162.382732)"><g><path d="M 57.078125 -59.992188 C 56.445312 -60.242188 55.433594 -60.371094 52.523438 -60.625 C 49.867188 -60.875 30.25 -61.636719 27.84375 -61.636719 L 24.300781 -61.761719 L 21.894531 -61.761719 C 22.273438 -62.269531 23.414062 -63.535156 24.171875 -64.167969 C 24.679688 -64.546875 25.1875 -65.054688 25.691406 -65.6875 C 26.199219 -66.320312 27.96875 -67.964844 28.855469 -68.722656 L 30.121094 -69.734375 L 30.628906 -70.367188 C 31.007812 -70.75 31.007812 -70.875 30.753906 -71.253906 C 30.628906 -71.507812 30.375 -71.632812 30.25 -71.632812 C 29.996094 -71.632812 28.476562 -70.496094 28.351562 -70.117188 L 27.210938 -69.101562 C 25.820312 -67.964844 25.566406 -67.835938 25.3125 -67.457031 C 25.058594 -67.203125 21.769531 -64.039062 21.261719 -63.660156 L 20.882812 -63.28125 L 19.871094 -62.140625 L 19.363281 -61.636719 L 1.519531 -61.257812 L -1.265625 -61.003906 C -3.417969 -60.875 -9.492188 -60.371094 -10.503906 -60.117188 C -11.515625 -59.863281 -12.023438 -59.359375 -11.644531 -58.976562 C -11.515625 -58.726562 -8.984375 -58.976562 -7.214844 -59.359375 C -6.835938 -59.484375 -3.796875 -59.863281 -0.757812 -59.992188 L 2.40625 -60.242188 L 5.820312 -60.371094 L 10 -60.625 C 11.136719 -60.75 15.441406 -60.75 18.226562 -60.75 C 18.097656 -60.496094 17.84375 -60.371094 17.71875 -60.117188 L 17.339844 -59.863281 L 16.960938 -59.359375 L 15.441406 -57.710938 C 13.667969 -55.8125 8.101562 -49.738281 6.960938 -48.09375 C 6.960938 -48.09375 4.9375 -45.6875 4.9375 -45.816406 C 4.9375 -45.6875 4.429688 -45.183594 3.921875 -44.675781 C 3.289062 -44.042969 2.277344 -42.90625 -0.378906 -39.742188 L -1.390625 -38.601562 L -2.40625 -37.335938 C -2.65625 -36.957031 -2.785156 -36.703125 -2.910156 -36.703125 C -3.164062 -36.703125 -3.796875 -35.945312 -5.820312 -33.285156 C -6.582031 -32.398438 -7.214844 -31.640625 -7.46875 -31.515625 C -7.59375 -31.261719 -8.859375 -29.742188 -10.25 -28.097656 L -13.414062 -24.171875 L -18.605469 -17.210938 C -19.871094 -15.441406 -20.628906 -14.429688 -20.882812 -14.554688 L -20.882812 -14.300781 C -20.882812 -14.175781 -20.882812 -13.921875 -21.007812 -13.667969 C -21.136719 -13.289062 -21.261719 -13.164062 -21.390625 -13.289062 C -21.390625 -13.164062 -21.515625 -13.035156 -21.515625 -13.035156 C -21.515625 -12.78125 -21.515625 -12.65625 -21.640625 -12.65625 C -21.640625 -12.78125 -22.023438 -12.023438 -22.273438 -11.136719 C -22.78125 -9.871094 -22.90625 -9.367188 -22.78125 -8.734375 C -22.527344 -7.972656 -22.402344 -7.847656 -22.023438 -7.71875 C -21.515625 -7.71875 -21.261719 -7.71875 -21.136719 -7.972656 C -20.882812 -8.351562 -20.882812 -8.351562 -21.390625 -8.480469 C -21.894531 -8.480469 -21.894531 -8.605469 -21.894531 -9.113281 C -21.769531 -9.746094 -20.757812 -11.898438 -19.871094 -13.289062 C -17.464844 -16.832031 -11.136719 -24.933594 -7.085938 -29.617188 L -5.0625 -32.019531 L -0.886719 -36.828125 L 2.53125 -40.625 L 3.671875 -42.019531 L 5.1875 -43.664062 C 6.328125 -44.929688 7.339844 -46.195312 9.492188 -48.726562 C 10.25 -49.613281 11.136719 -50.5 11.515625 -50.878906 C 11.898438 -51.257812 12.53125 -52.015625 12.910156 -52.523438 L 15.0625 -54.800781 C 16.453125 -56.320312 17.339844 -57.078125 18.097656 -58.09375 L 19.238281 -59.230469 C 19.617188 -59.738281 19.996094 -59.992188 20.25 -60.371094 L 20.882812 -60.75 C 21.894531 -60.875 22.65625 -60.75 23.035156 -60.75 L 23.539062 -60.75 C 30.882812 -60.625 48.472656 -60.117188 51.003906 -59.738281 C 51.765625 -59.484375 53.03125 -59.484375 53.664062 -59.359375 C 54.929688 -59.359375 54.929688 -59.359375 54.675781 -58.851562 C 54.421875 -58.597656 54.546875 -58.34375 54.675781 -58.21875 C 54.929688 -57.964844 55.054688 -57.839844 55.179688 -57.964844 L 56.445312 -58.472656 C 57.839844 -59.105469 57.964844 -59.484375 57.078125 -59.992188 Z M 57.078125 -59.992188 "/></g></g></g><g fill="#3d3b3a" fill-opacity="1"><g transform="translate(176.311544, 162.382732)"><g><path d="M 45.5625 -69.609375 C 45.308594 -69.988281 44.042969 -69.988281 42.777344 -69.734375 L 41.386719 -69.484375 C 40.625 -69.355469 39.359375 -68.976562 38.855469 -68.722656 L 37.84375 -68.46875 C 35.183594 -67.710938 31.640625 -66.191406 28.984375 -64.671875 L 27.589844 -63.914062 L 26.453125 -63.15625 L 24.300781 -61.761719 C 22.78125 -60.75 21.007812 -59.484375 20.882812 -59.359375 L 16.832031 -56.195312 L 14.175781 -53.914062 L 9.871094 -50.117188 C 9.238281 -49.484375 8.480469 -48.726562 8.101562 -48.472656 L 6.960938 -48.09375 C 6.328125 -47.839844 5.820312 -47.714844 5.820312 -47.585938 C 5.820312 -47.585938 5.695312 -47.460938 5.570312 -47.460938 C 5.441406 -47.460938 5.0625 -47.335938 4.554688 -47.082031 C 4.175781 -46.953125 3.921875 -46.828125 3.796875 -46.703125 L 2.53125 -46.195312 L -1.390625 -44.804688 C -1.773438 -44.675781 -2.277344 -44.421875 -2.40625 -44.296875 C -2.65625 -43.789062 -2.53125 -43.539062 -2.023438 -43.539062 C -1.773438 -43.539062 -1.265625 -43.664062 -0.757812 -43.789062 L 0.507812 -44.421875 C 0.886719 -44.675781 1.390625 -44.804688 1.898438 -44.929688 L 4.175781 -45.6875 C 4.304688 -45.816406 4.554688 -45.816406 4.808594 -45.941406 C 4.808594 -46.070312 5.695312 -46.320312 5.820312 -46.195312 C 5.820312 -46.195312 4.9375 -45.183594 3.671875 -44.042969 L -0.757812 -39.359375 L -1.265625 -38.855469 L -2.40625 -37.460938 L -3.542969 -36.195312 C -3.921875 -35.816406 -4.429688 -35.3125 -4.429688 -34.804688 C -4.429688 -34.425781 -3.921875 -34.171875 -3.671875 -34.046875 C -3.289062 -33.917969 -3.164062 -34.046875 -3.039062 -34.171875 L -2.65625 -34.425781 L -2.023438 -34.929688 L -1.644531 -35.3125 L -1.265625 -35.5625 L -1.011719 -35.691406 L 0.507812 -37.210938 L 1.265625 -37.589844 L 1.390625 -37.589844 L 2.152344 -38.09375 C 2.40625 -38.347656 3.039062 -38.601562 3.542969 -38.726562 L 4.9375 -39.234375 C 5.316406 -39.359375 5.570312 -39.488281 5.570312 -39.359375 C 5.570312 -39.234375 5.570312 -39.234375 5.441406 -39.234375 C 5.316406 -39.234375 4.429688 -38.09375 4.050781 -37.335938 L 3.671875 -36.578125 C 3.164062 -35.4375 3.164062 -34.929688 3.796875 -34.425781 C 4.175781 -34.171875 4.429688 -34.046875 4.808594 -34.171875 L 5.0625 -34.296875 C 6.074219 -34.425781 9.492188 -35.945312 10 -36.195312 C 10.757812 -36.449219 10.503906 -36.578125 12.277344 -37.335938 C 12.53125 -37.335938 13.035156 -37.84375 13.667969 -38.09375 C 16.328125 -39.359375 14.046875 -38.476562 16.453125 -39.359375 C 17.59375 -40.121094 16.707031 -40.121094 16.199219 -40.121094 L 13.035156 -38.726562 C 11.390625 -37.96875 6.960938 -36.070312 5.695312 -35.5625 L 5.1875 -35.4375 L 4.9375 -35.4375 C 4.808594 -35.4375 4.9375 -35.945312 5.316406 -36.703125 L 5.441406 -37.082031 C 5.695312 -37.589844 6.453125 -38.476562 7.59375 -39.613281 C 8.101562 -40.246094 8.226562 -40.375 8.101562 -40.625 C 7.847656 -41.007812 7.339844 -41.007812 5.695312 -40.5 C 3.671875 -39.742188 2.53125 -39.359375 1.519531 -38.855469 C 1.390625 -38.855469 1.390625 -38.726562 1.265625 -38.726562 C 1.011719 -38.601562 0.757812 -38.476562 0.632812 -38.601562 L 0.632812 -38.855469 C 1.011719 -39.488281 4.429688 -42.90625 6.835938 -45.308594 L 8.984375 -47.460938 L 9.617188 -47.839844 L 14.429688 -49.992188 C 16.074219 -50.75 17.085938 -51.132812 17.339844 -51.257812 L 19.492188 -52.144531 C 20.503906 -52.648438 21.515625 -53.03125 21.640625 -53.03125 C 21.894531 -53.03125 22.527344 -53.28125 23.035156 -53.535156 C 25.691406 -54.800781 31.515625 -57.460938 32.90625 -58.34375 L 33.664062 -58.597656 C 34.046875 -58.726562 34.296875 -58.976562 34.296875 -59.105469 C 34.425781 -59.230469 34.679688 -59.359375 34.929688 -59.484375 C 35.183594 -59.484375 35.691406 -59.738281 36.070312 -59.992188 L 37.96875 -61.128906 C 38.601562 -61.636719 39.867188 -62.394531 40.625 -63.027344 L 42.523438 -64.421875 C 43.15625 -64.800781 44.804688 -66.445312 45.308594 -67.332031 C 45.941406 -68.21875 45.941406 -69.101562 45.5625 -69.609375 Z M 44.296875 -67.710938 L 43.539062 -66.824219 C 43.285156 -66.445312 42.90625 -65.9375 42.777344 -65.9375 L 41.511719 -64.925781 C 40.753906 -64.167969 38.855469 -62.902344 37.210938 -61.890625 L 32.90625 -59.484375 L 31.386719 -58.726562 L 29.996094 -57.964844 L 27.589844 -56.828125 C 26.832031 -56.320312 25.945312 -55.941406 25.566406 -55.8125 L 23.792969 -55.179688 L 21.261719 -54.042969 L 18.476562 -52.902344 C 17.84375 -52.648438 17.210938 -52.398438 17.085938 -52.398438 C 16.960938 -52.398438 16.453125 -52.144531 15.820312 -51.890625 C 15.3125 -51.636719 14.679688 -51.382812 14.554688 -51.382812 C 14.429688 -51.382812 13.796875 -51.003906 13.035156 -50.625 C 12.148438 -50.246094 11.769531 -50.117188 11.769531 -50.246094 C 11.769531 -50.371094 11.769531 -50.625 11.898438 -50.625 L 13.414062 -51.890625 C 15.945312 -54.167969 20.628906 -58.09375 20.882812 -58.09375 L 21.894531 -58.851562 C 23.792969 -60.371094 27.84375 -63.027344 31.007812 -64.671875 C 33.414062 -65.8125 36.703125 -67.078125 38.980469 -67.710938 L 41.007812 -68.34375 C 41.386719 -68.46875 43.539062 -68.722656 43.917969 -68.597656 C 44.171875 -68.46875 44.296875 -68.34375 44.421875 -68.089844 C 44.421875 -67.964844 44.296875 -67.710938 44.296875 -67.710938 Z M 44.296875 -67.710938 "/></g></g></g><g fill="#3d3b3a" fill-opacity="1"><g transform="translate(194.536665, 162.382732)"><g><path d="M -1.265625 -34.550781 C 0.125 -34.804688 1.011719 -35.058594 3.289062 -36.195312 L 8.984375 -38.726562 L 10.632812 -39.488281 C 10.757812 -39.613281 10.757812 -39.992188 10.503906 -40.121094 L 10.378906 -40.246094 L 10 -40.246094 L 9.746094 -40.121094 C 2.785156 -37.082031 -1.390625 -35.5625 -2.152344 -35.816406 C -2.40625 -35.945312 -2.40625 -36.070312 -2.023438 -36.449219 C -1.773438 -36.957031 -1.519531 -37.082031 -0.632812 -37.335938 C 0.757812 -37.714844 2.023438 -38.347656 4.175781 -39.867188 C 6.203125 -41.257812 7.085938 -42.019531 6.960938 -42.398438 C 6.707031 -43.15625 5.570312 -43.03125 3.542969 -42.273438 C 1.011719 -41.386719 -1.898438 -39.109375 -3.164062 -37.082031 C -3.796875 -36.070312 -3.921875 -35.691406 -3.671875 -35.183594 C -3.542969 -34.296875 -3.289062 -34.296875 -1.265625 -34.550781 Z M -0.253906 -38.726562 C -0.125 -39.109375 2.023438 -40.625 2.910156 -40.878906 C 3.671875 -41.257812 4.9375 -41.765625 4.9375 -41.511719 C 4.808594 -41.386719 2.910156 -40.121094 1.773438 -39.488281 C 0.378906 -38.726562 -0.507812 -38.476562 -0.253906 -38.726562 Z M -0.253906 -38.726562 "/></g></g></g><g fill="#000000" fill-opacity="1"><g transform="translate(142.246943, 297.460996)"><g><path d="M 4.453125 -5.359375 C 3.867188 -5.660156 3.351562 -5.8125 2.90625 -5.8125 C 2.570312 -5.8125 2.304688 -5.734375 2.109375 -5.578125 C 1.921875 -5.429688 1.828125 -5.234375 1.828125 -4.984375 C 1.828125 -4.722656 1.945312 -4.507812 2.1875 -4.34375 C 2.4375 -4.175781 2.78125 -4.007812 3.21875 -3.84375 C 3.550781 -3.726562 3.832031 -3.59375 4.0625 -3.4375 C 4.300781 -3.289062 4.5 -3.085938 4.65625 -2.828125 C 4.8125 -2.566406 4.890625 -2.238281 4.890625 -1.84375 C 4.890625 -1.488281 4.796875 -1.164062 4.609375 -0.875 C 4.429688 -0.582031 4.171875 -0.347656 3.828125 -0.171875 C 3.492188 -0.00390625 3.097656 0.078125 2.640625 0.078125 C 2.234375 0.078125 1.832031 0.015625 1.4375 -0.109375 C 1.039062 -0.242188 0.691406 -0.421875 0.390625 -0.640625 L 0.875 -1.484375 C 1.09375 -1.304688 1.359375 -1.160156 1.671875 -1.046875 C 1.984375 -0.929688 2.273438 -0.875 2.546875 -0.875 C 2.867188 -0.875 3.148438 -0.953125 3.390625 -1.109375 C 3.640625 -1.265625 3.765625 -1.507812 3.765625 -1.84375 C 3.765625 -2.09375 3.660156 -2.304688 3.453125 -2.484375 C 3.253906 -2.660156 2.96875 -2.816406 2.59375 -2.953125 C 2.207031 -3.097656 1.890625 -3.238281 1.640625 -3.375 C 1.390625 -3.507812 1.171875 -3.703125 0.984375 -3.953125 C 0.804688 -4.203125 0.71875 -4.515625 0.71875 -4.890625 C 0.71875 -5.441406 0.90625 -5.882812 1.28125 -6.21875 C 1.65625 -6.550781 2.144531 -6.734375 2.75 -6.765625 C 3.195312 -6.765625 3.585938 -6.710938 3.921875 -6.609375 C 4.253906 -6.503906 4.566406 -6.359375 4.859375 -6.171875 Z M 4.453125 -5.359375 "/></g></g></g><g fill="#000000" fill-opacity="1"><g transform="translate(151.308952, 297.460996)"><g><path d="M 2 -6.71875 L 2 0 L 0.921875 0 L 0.921875 -6.71875 Z M 2 -6.71875 "/></g></g></g><g fill="#000000" fill-opacity="1"><g transform="translate(157.926949, 297.460996)"><g><path d="M 6.859375 -6.71875 L 6.859375 0.234375 L 6.828125 0.234375 L 1.984375 -4.453125 L 2.015625 0 L 0.921875 0 L 0.921875 -6.953125 L 0.984375 -6.953125 L 5.8125 -2.203125 L 5.796875 -6.71875 Z M 6.859375 -6.71875 "/></g></g></g><g fill="#000000" fill-opacity="1"><g transform="translate(169.40531, 297.460996)"><g><path d="M 5.90625 -0.53125 C 5.707031 -0.382812 5.4375 -0.242188 5.09375 -0.109375 C 4.75 0.015625 4.367188 0.078125 3.953125 0.078125 C 3.253906 0.078125 2.644531 -0.0703125 2.125 -0.375 C 1.601562 -0.6875 1.203125 -1.097656 0.921875 -1.609375 C 0.648438 -2.117188 0.515625 -2.6875 0.515625 -3.3125 C 0.515625 -3.976562 0.648438 -4.578125 0.921875 -5.109375 C 1.203125 -5.640625 1.59375 -6.050781 2.09375 -6.34375 C 2.601562 -6.644531 3.175781 -6.796875 3.8125 -6.796875 C 4.207031 -6.796875 4.570312 -6.742188 4.90625 -6.640625 C 5.238281 -6.535156 5.535156 -6.40625 5.796875 -6.25 L 5.375 -5.234375 C 4.875 -5.585938 4.363281 -5.765625 3.84375 -5.765625 C 3.457031 -5.765625 3.09375 -5.65625 2.75 -5.4375 C 2.40625 -5.226562 2.128906 -4.941406 1.921875 -4.578125 C 1.722656 -4.210938 1.625 -3.8125 1.625 -3.375 C 1.625 -2.90625 1.71875 -2.488281 1.90625 -2.125 C 2.09375 -1.757812 2.359375 -1.472656 2.703125 -1.265625 C 3.054688 -1.054688 3.460938 -0.953125 3.921875 -0.953125 C 4.242188 -0.953125 4.535156 -1 4.796875 -1.09375 C 5.054688 -1.195312 5.273438 -1.328125 5.453125 -1.484375 Z M 5.90625 -0.53125 "/></g></g></g><g fill="#000000" fill-opacity="1"><g transform="translate(179.509487, 297.460996)"><g><path d="M 5.390625 -6.71875 L 5.390625 -5.6875 L 2 -5.6875 L 2 -3.890625 L 5.015625 -3.890625 L 5.015625 -2.859375 L 2 -2.859375 L 2 -1.03125 L 5.515625 -1.03125 L 5.515625 0 L 0.921875 0 L 0.921875 -6.71875 Z M 5.390625 -6.71875 "/></g></g></g><g fill="#000000" fill-opacity="1"><g transform="translate(189.272424, 297.460996)"><g/></g></g><g fill="#000000" fill-opacity="1"><g transform="translate(195.918093, 297.460996)"><g><path d="M 4.75 -1.03125 L 4.75 0 L 0.5 0 L 0.828125 -0.328125 C 1.441406 -0.941406 1.921875 -1.441406 2.265625 -1.828125 C 2.609375 -2.210938 2.894531 -2.597656 3.125 -2.984375 C 3.363281 -3.378906 3.484375 -3.75 3.484375 -4.09375 C 3.484375 -4.425781 3.378906 -4.679688 3.171875 -4.859375 C 2.972656 -5.046875 2.722656 -5.140625 2.421875 -5.140625 C 2.097656 -5.140625 1.84375 -5.046875 1.65625 -4.859375 C 1.476562 -4.671875 1.390625 -4.460938 1.390625 -4.234375 C 1.390625 -3.859375 1.507812 -3.539062 1.75 -3.28125 L 1.09375 -2.6875 C 0.875 -2.8125 0.691406 -3.03125 0.546875 -3.34375 C 0.410156 -3.664062 0.34375 -3.953125 0.34375 -4.203125 C 0.34375 -4.546875 0.429688 -4.867188 0.609375 -5.171875 C 0.796875 -5.472656 1.054688 -5.710938 1.390625 -5.890625 C 1.734375 -6.078125 2.140625 -6.171875 2.609375 -6.171875 C 2.992188 -6.171875 3.335938 -6.078125 3.640625 -5.890625 C 3.941406 -5.710938 4.175781 -5.472656 4.34375 -5.171875 C 4.507812 -4.867188 4.59375 -4.539062 4.59375 -4.1875 C 4.59375 -3.84375 4.515625 -3.492188 4.359375 -3.140625 C 4.203125 -2.796875 4.007812 -2.476562 3.78125 -2.1875 C 3.550781 -1.894531 3.234375 -1.507812 2.828125 -1.03125 Z M 4.75 -1.03125 "/></g></g></g><g fill="#000000" fill-opacity="1"><g transform="translate(204.77721, 297.460996)"><g><path d="M 2.890625 0.015625 C 2.398438 0.0234375 1.957031 -0.0859375 1.5625 -0.328125 C 1.175781 -0.578125 0.875 -0.9375 0.65625 -1.40625 C 0.4375 -1.875 0.328125 -2.429688 0.328125 -3.078125 C 0.328125 -4.117188 0.554688 -4.894531 1.015625 -5.40625 C 1.472656 -5.914062 2.097656 -6.164062 2.890625 -6.15625 C 3.378906 -6.164062 3.816406 -6.046875 4.203125 -5.796875 C 4.597656 -5.554688 4.90625 -5.203125 5.125 -4.734375 C 5.34375 -4.273438 5.453125 -3.722656 5.453125 -3.078125 C 5.453125 -2.410156 5.335938 -1.84375 5.109375 -1.375 C 4.890625 -0.914062 4.585938 -0.566406 4.203125 -0.328125 C 3.816406 -0.0859375 3.378906 0.0234375 2.890625 0.015625 Z M 2.875 -1 C 3.363281 -1 3.726562 -1.1875 3.96875 -1.5625 C 4.207031 -1.945312 4.328125 -2.460938 4.328125 -3.109375 C 4.328125 -3.722656 4.207031 -4.210938 3.96875 -4.578125 C 3.726562 -4.953125 3.363281 -5.132812 2.875 -5.125 C 2.394531 -5.132812 2.035156 -4.953125 1.796875 -4.578125 C 1.554688 -4.203125 1.4375 -3.703125 1.4375 -3.078125 C 1.4375 -2.453125 1.554688 -1.945312 1.796875 -1.5625 C 2.035156 -1.1875 2.394531 -1 2.875 -1 Z M 2.875 -1 "/></g></g></g><g fill="#000000" fill-opacity="1"><g transform="translate(214.235803, 297.460996)"><g><path d="M 2.171875 -6.09375 L 2.171875 0 L 1.09375 0 L 1.09375 -5.0625 L 0.484375 -5.0625 L 0.484375 -6.09375 Z M 2.171875 -6.09375 "/></g></g></g><g fill="#000000" fill-opacity="1"><g transform="translate(221.019808, 297.460996)"><g><path d="M 2.34375 -4.046875 C 2.75 -4.046875 3.097656 -3.953125 3.390625 -3.765625 C 3.679688 -3.578125 3.90625 -3.332031 4.0625 -3.03125 C 4.21875 -2.726562 4.296875 -2.390625 4.296875 -2.015625 C 4.296875 -1.628906 4.207031 -1.273438 4.03125 -0.953125 C 3.851562 -0.640625 3.609375 -0.390625 3.296875 -0.203125 C 2.984375 -0.015625 2.632812 0.078125 2.25 0.078125 C 1.914062 0.078125 1.585938 0.015625 1.265625 -0.109375 C 0.953125 -0.234375 0.703125 -0.390625 0.515625 -0.578125 L 1.078125 -1.4375 C 1.191406 -1.300781 1.347656 -1.1875 1.546875 -1.09375 C 1.753906 -1 1.957031 -0.953125 2.15625 -0.953125 C 2.457031 -0.953125 2.703125 -1.046875 2.890625 -1.234375 C 3.085938 -1.429688 3.1875 -1.679688 3.1875 -1.984375 C 3.1875 -2.328125 3.085938 -2.601562 2.890625 -2.8125 C 2.703125 -3.03125 2.4375 -3.140625 2.09375 -3.140625 C 1.894531 -3.140625 1.703125 -3.109375 1.515625 -3.046875 C 1.335938 -2.992188 1.140625 -2.90625 0.921875 -2.78125 L 0.921875 -6.09375 L 3.875 -6.09375 L 3.875 -5.0625 L 1.84375 -5.0625 L 1.84375 -3.984375 C 2.007812 -4.023438 2.175781 -4.046875 2.34375 -4.046875 Z M 2.34375 -4.046875 "/></g></g></g></svg>